<?xml version="1.0" standalone="no"?>
<!DOCTYPE svg PUBLIC "-//W3C//DTD SVG 20010904//EN"
 "http://www.w3.org/TR/2001/REC-SVG-20010904/DTD/svg10.dtd">
<svg version="1.0" xmlns="http://www.w3.org/2000/svg"
 width="300.000000pt" height="104.000000pt" viewBox="0 0 300.000000 104.000000"
 preserveAspectRatio="xMidYMid meet">
<metadata>
Created by potrace 1.10, written by Peter Selinger 2001-2011
</metadata>
<g transform="translate(0.000000,104.000000) scale(0.100000,-0.100000)"
fill="#000000" stroke="none">
<path d="M1140 1032 c0 -16 36 -42 57 -42 23 0 60 36 49 47 -4 5 -12 0 -17
-10 -12 -21 -57 -23 -65 -2 -6 16 -24 21 -24 7z"/>
<path d="M1320 1031 c0 -18 44 -41 77 -41 20 0 43 9 60 25 31 27 13 35 -21 10
-25 -19 -60 -19 -76 0 -14 17 -40 20 -40 6z"/>
<path d="M902 918 c-18 -18 -14 -46 9 -58 27 -15 51 5 47 39 -3 29 -35 40 -56
19z m48 -24 c0 -7 -4 -15 -9 -18 -12 -8 -45 19 -38 32 9 14 47 3 47 -14z"/>
<path d="M1614 919 c-10 -17 13 -36 27 -22 12 12 4 33 -11 33 -5 0 -12 -5 -16
-11z"/>
<path d="M1844 889 c-10 -17 13 -36 27 -22 12 12 4 33 -11 33 -5 0 -12 -5 -16
-11z"/>
<path d="M1180 876 c0 -8 4 -17 9 -20 11 -7 33 18 24 27 -12 12 -33 7 -33 -7z"/>
<path d="M1357 844 c-14 -14 -7 -35 11 -32 9 2 17 10 17 17 0 16 -18 25 -28
15z"/>
<path d="M787 833 c-12 -11 -8 -40 7 -52 19 -16 56 2 56 27 -1 16 -1 16 -11 0
-11 -19 -39 -14 -39 7 0 8 10 16 23 18 20 4 20 4 -4 6 -14 0 -29 -2 -32 -6z"/>
<path d="M1147 734 c-14 -15 -6 -34 14 -34 14 0 19 5 17 17 -3 18 -20 27 -31
17z"/>
<path d="M1244 729 c-10 -17 13 -36 27 -22 12 12 4 33 -11 33 -5 0 -12 -5 -16
-11z"/>
<path d="M1444 719 c-10 -17 13 -36 27 -22 12 12 4 33 -11 33 -5 0 -12 -5 -16
-11z"/>
<path d="M2165 689 c-8 -25 6 -42 31 -37 23 4 31 37 12 49 -22 14 -36 10 -43
-12z"/>
<path d="M660 682 c0 -6 6 -12 13 -15 6 -2 8 -8 4 -13 -5 -5 -15 -1 -23 10
-12 17 -14 17 -20 3 -8 -23 3 -37 32 -37 22 0 25 4 22 27 -3 25 -28 47 -28 25z"/>
<path d="M2055 631 c-3 -6 -10 -9 -14 -6 -5 2 -17 -3 -27 -11 -18 -14 -17 -15
11 -9 32 7 52 21 43 30 -3 4 -9 1 -13 -4z"/>
<path d="M204 611 c-19 -12 -39 -38 -53 -72 -20 -45 -23 -66 -19 -138 4 -74 8
-92 33 -129 88 -132 285 -95 285 54 0 80 -75 102 -111 32 -25 -49 -34 -53 -60
-27 -18 18 -21 30 -17 81 5 61 19 83 48 71 60 -25 114 1 103 49 -20 80 -135
124 -209 79z m136 -33 c42 -29 46 -42 18 -56 -21 -10 -20 -10 10 -5 20 3 32 1
32 -6 0 -21 -58 -12 -84 14 -14 14 -31 25 -39 25 -41 0 -71 -95 -56 -177 10
-56 46 -93 88 -93 34 0 51 17 51 51 0 26 15 39 46 39 10 0 14 -12 14 -40 0
-30 -7 -48 -29 -72 -27 -30 -34 -33 -86 -32 -53 0 -60 3 -91 36 -38 42 -54 91
-54 168 1 136 90 209 180 148z m-22 -68 c4 -12 2 -13 -9 -2 -17 16 -46 16 -56
0 -4 -7 -10 -33 -14 -58 l-6 -45 -2 40 c-1 53 22 87 57 83 14 -2 27 -10 30
-18z"/>
<path d="M858 625 c-2 -2 -24 -5 -48 -7 -36 -2 -51 -9 -81 -39 -45 -45 -53
-83 -32 -150 15 -44 23 -54 57 -70 23 -10 62 -19 89 -19 40 0 47 -3 47 -19 0
-11 -4 -22 -9 -25 -4 -3 -7 -16 -6 -28 1 -13 0 -16 -2 -8 -2 8 -15 23 -29 33
-21 15 -24 16 -24 2 0 -8 -4 -15 -10 -15 -5 0 -10 -9 -10 -20 0 -11 5 -20 10
-20 6 0 10 9 10 20 0 11 5 20 11 20 6 0 9 -12 7 -28 -4 -39 -45 -44 -54 -6 -5
18 -3 29 4 32 7 2 12 9 12 16 0 14 -78 9 -97 -6 -17 -13 -17 -63 0 -76 16 -14
128 -14 145 0 20 17 62 -10 63 -41 l1 -26 11 28 c7 18 18 27 34 27 19 0 23 -5
23 -31 0 -17 4 -28 10 -24 6 3 10 19 10 34 0 27 2 28 44 27 24 0 48 -5 53 -10
5 -5 1 -7 -9 -3 -10 4 -18 2 -18 -3 0 -14 23 -12 44 3 17 12 17 17 5 43 -16
32 -49 45 -49 20 0 -9 7 -16 15 -16 8 0 15 -4 15 -10 0 -5 -8 -10 -18 -10 -13
0 -23 17 -38 66 l-21 66 36 -5 c20 -2 45 -1 56 4 14 5 7 8 -27 8 -27 1 -48 6
-48 11 0 6 7 10 15 10 12 0 15 18 15 99 l0 98 -40 27 c-45 30 -65 33 -74 11
-4 -12 3 -15 37 -15 33 -1 38 -3 25 -11 -15 -8 -18 -25 -18 -109 0 -82 3 -100
15 -100 8 0 15 -4 15 -10 0 -5 -21 -10 -47 -10 -42 1 -46 2 -30 14 12 9 17 27
17 62 l0 49 -65 0 c-64 0 -65 0 -65 -27 0 -16 5 -28 10 -28 6 0 10 -4 10 -10
0 -5 -19 -10 -42 -10 -36 1 -40 3 -28 13 9 7 16 33 18 64 2 41 -1 54 -15 62
-15 8 -10 10 25 11 23 0 42 -4 42 -10 0 -5 -4 -10 -10 -10 -5 0 -10 -9 -10
-20 0 -18 7 -20 65 -20 l65 0 0 43 c-1 40 -3 43 -43 62 -43 20 -63 26 -69 20z
m51 -72 l-1 -48 -14 32 c-24 57 -74 69 -117 29 -31 -29 -42 -64 -33 -111 18
-92 124 -103 157 -17 14 36 21 20 14 -30 l-7 -43 -56 -3 c-70 -3 -116 22 -138
74 -18 43 -6 100 28 131 31 28 43 31 111 32 l57 1 -1 -47z m55 -219 c9 -25 7
-104 -3 -104 -13 0 -51 50 -51 67 0 42 41 70 54 37z m60 -45 c-3 -5 -1 -9 4
-9 5 0 9 -13 9 -30 0 -26 -4 -30 -29 -30 -26 0 -28 2 -22 28 4 15 11 30 17 33
5 4 7 12 3 18 -5 7 -1 9 8 5 9 -3 13 -10 10 -15z m-264 -24 c15 -18 -2 -45
-30 -45 -23 0 -34 28 -19 46 15 18 33 18 49 -1z m150 -5 c0 -11 7 -20 15 -20
8 0 15 -4 15 -10 0 -5 -11 -10 -25 -10 -21 0 -25 5 -25 30 0 17 5 30 10 30 6
0 10 -9 10 -20z"/>
<path d="M1074 615 c-18 -13 -16 -14 26 -14 25 1 36 4 25 6 -11 3 -23 9 -26
14 -3 5 -14 2 -25 -6z"/>
<path d="M2384 615 c-18 -13 -15 -14 31 -16 28 -1 42 -3 33 -6 -16 -4 -18 -18
-18 -105 0 -84 3 -103 18 -114 15 -12 11 -13 -30 -14 -27 0 -48 5 -48 10 0 6
7 10 15 10 11 0 15 13 15 53 l0 52 -67 -1 c-66 -1 -68 -2 -71 -27 -2 -19 1
-27 12 -27 9 0 16 -4 16 -10 0 -5 -18 -10 -40 -10 -22 0 -40 5 -40 10 0 6 5
10 10 10 15 0 13 117 -2 123 -7 3 7 6 32 6 35 0 41 -2 28 -10 -10 -5 -18 -19
-18 -29 0 -18 7 -20 70 -20 l70 0 0 40 c0 36 -3 41 -40 60 -74 38 -206 21
-225 -29 -3 -9 -12 -28 -20 -43 -12 -21 -13 -36 -6 -69 13 -58 41 -92 87 -106
49 -14 141 -16 149 -3 4 6 18 4 37 -6 23 -12 36 -13 54 -5 13 6 34 7 51 2 32
-9 51 -5 75 16 14 13 20 13 45 0 15 -8 55 -17 88 -20 88 -9 119 23 99 101 -7
23 -22 31 -21 10 0 -7 -1 -29 -1 -48 l-2 -35 -56 -3 c-81 -4 -140 37 -145 103
-4 49 3 69 35 101 32 32 39 34 98 34 l63 0 3 -46 c2 -30 -1 -44 -8 -39 -5 3
-10 15 -10 25 0 23 -36 50 -67 50 -53 0 -96 -78 -79 -145 17 -66 96 -89 135
-39 38 48 18 62 -25 19 -32 -32 -40 -31 -63 6 -14 23 -17 39 -11 65 16 71 45
81 91 32 29 -32 31 -32 45 -14 17 24 18 78 2 94 -7 7 -41 12 -84 12 -57 0 -77
-4 -97 -20 l-26 -21 -11 21 c-14 25 -52 35 -80 20 -16 -9 -25 -9 -33 -1 -15
15 -40 14 -63 -4z m-54 -25 c0 -4 3 -22 6 -39 8 -39 -8 -41 -23 -1 -13 34 -52
48 -88 32 -88 -40 -73 -192 19 -200 41 -4 63 10 77 45 14 37 26 26 20 -19 l-6
-42 -55 -3 c-68 -4 -114 21 -136 74 -22 51 -11 95 32 133 32 27 41 30 95 29
32 -1 59 -5 59 -9z m213 3 c-16 -6 -19 -213 -3 -213 6 0 10 -4 10 -10 0 -5
-18 -10 -40 -10 -37 0 -55 13 -29 22 17 6 16 197 -2 209 -9 6 0 8 31 8 25 0
39 -3 33 -6z"/>
<path d="M1695 610 c-16 -7 -12 -9 20 -10 37 -1 39 -2 21 -15 -16 -12 -18 -23
-13 -67 3 -29 2 -75 -1 -103 -11 -78 -31 -67 -107 54 -36 58 -65 100 -65 94 0
-6 -3 -18 -6 -27 -4 -11 -1 -16 10 -16 9 0 16 -4 16 -10 0 -5 -4 -10 -10 -10
-5 0 -10 -5 -10 -12 0 -6 3 -8 7 -5 9 9 43 -22 43 -40 0 -7 4 -13 9 -13 5 0
13 -9 16 -20 18 -56 97 -82 111 -37 7 21 7 21 15 2 7 -18 8 -18 8 -2 1 17 2
17 17 2 25 -25 86 -47 114 -40 44 11 99 54 120 94 18 37 19 42 4 90 -17 58
-54 90 -114 98 -38 5 -66 -4 -122 -41 -27 -17 -27 -17 -23 3 2 13 -3 25 -15
31 -21 11 -19 11 -45 0z m246 -33 c101 -68 43 -229 -76 -213 -60 7 -105 60
-105 122 0 39 5 51 34 80 42 42 95 46 147 11z"/>
<path d="M1818 565 c-18 -10 -29 -26 -33 -49 -15 -79 69 -151 142 -121 55 23
60 88 11 139 -39 41 -82 52 -120 31z m55 -20 c20 -8 38 -19 42 -25 8 -13 -1
-13 -25 2 -17 11 -23 9 -42 -10 -19 -19 -20 -22 -5 -22 9 0 17 7 17 15 0 20 6
19 30 -5 17 -17 18 -21 5 -26 -8 -4 -15 -14 -15 -23 -1 -14 -2 -14 -11 2 -5 9
-15 17 -21 17 -14 0 -37 31 -38 51 0 12 18 39 26 39 1 0 18 -7 37 -15z m71
-90 c6 -17 -19 -45 -40 -45 -28 0 -3 46 32 59 1 1 4 -6 8 -14z"/>
<path d="M1408 597 c35 -11 75 -56 85 -95 3 -13 1 -37 -4 -54 -7 -24 -6 -29 3
-20 17 17 28 15 28 -7 0 -15 -5 -17 -27 -13 -24 5 -26 3 -15 -10 7 -9 21 -14
32 -11 18 5 20 14 20 84 0 60 -3 79 -14 79 -7 0 -30 14 -51 30 -22 17 -49 30
-64 29 -24 -1 -24 -2 7 -12z"/>
<path d="M1556 600 c12 -4 49 -54 83 -109 34 -56 64 -101 67 -101 13 0 -10 86
-26 97 -10 7 -30 33 -44 58 -28 46 -52 65 -83 64 -15 0 -15 -1 3 -9z"/>
<path d="M510 404 c0 -127 3 -193 10 -189 14 8 14 385 0 385 -6 0 -10 -72 -10
-196z"/>
<path d="M550 408 c0 -105 3 -188 7 -184 12 12 14 37 14 191 -1 173 -1 185
-13 185 -4 0 -8 -86 -8 -192z"/>
<path d="M1193 589 c48 -28 39 -96 -17 -123 -25 -12 -27 -16 -10 -16 24 0 61
-36 66 -65 2 -15 -4 -21 -27 -26 l-30 -7 32 -1 c23 -1 35 5 43 19 6 11 16 20
22 20 6 0 8 -3 4 -7 -3 -4 13 -16 36 -28 33 -16 50 -19 73 -12 17 5 37 10 45
11 8 1 15 6 15 11 0 6 -7 9 -15 7 -8 -2 -27 -6 -41 -9 -44 -8 -98 24 -122 73
-19 41 -20 45 -5 83 16 41 16 41 -7 41 -14 0 -29 9 -35 20 -6 11 -18 20 -28
20 -16 -1 -15 -2 1 -11z"/>
<path d="M1100 532 l0 -59 33 5 c17 2 38 9 45 14 17 14 15 63 -3 78 -13 11
-14 10 -10 -2 7 -19 -16 -30 -36 -17 -12 7 -12 10 -1 18 11 6 10 10 -3 15 -9
3 -19 6 -21 6 -2 0 -4 -26 -4 -58z m68 -9 c-4 -22 -38 -30 -38 -10 0 14 13 24
33 26 5 1 7 -7 5 -16z"/>
<path d="M1325 561 c-57 -12 -59 -90 -3 -143 39 -36 96 -39 124 -5 l19 22 -22
-19 c-23 -19 -73 -16 -73 5 0 6 -4 8 -9 4 -5 -3 -12 -1 -16 5 -3 5 -1 10 4 10
6 0 11 7 11 15 0 8 -4 15 -10 15 -5 0 -10 -4 -10 -10 0 -5 -5 -10 -11 -10 -6
0 -9 6 -6 14 3 8 -1 17 -9 20 -10 4 -14 16 -12 33 2 22 9 29 29 31 33 4 103
-24 95 -37 -4 -5 -1 -13 7 -18 7 -4 18 -19 25 -33 12 -23 12 -22 8 15 -4 28
-14 48 -36 68 -30 27 -49 30 -105 18z"/>
<path d="M1100 420 c0 -29 4 -40 15 -40 14 0 19 12 16 33 -3 20 21 4 30 -20 9
-24 12 -26 20 -11 13 24 2 43 -37 61 -19 10 -37 17 -39 17 -3 0 -5 -18 -5 -40z"/>
<path d="M1672 318 c-7 -7 -12 -18 -12 -26 0 -9 -7 -11 -22 -7 -13 4 -25 7
-28 7 -20 0 -30 -3 -30 -10 0 -5 14 -7 30 -4 23 3 30 0 30 -12 0 -10 7 -31 16
-47 13 -27 19 -30 46 -24 17 4 137 7 267 8 179 0 241 3 255 13 17 11 22 11 36
-1 24 -22 120 -23 132 -2 11 20 29 22 46 5 16 -16 40 -18 157 -16 50 0 99 1
110 1 11 0 27 -3 35 -6 39 -16 71 48 42 83 -18 23 -23 23 -181 22 -100 -1
-168 -5 -176 -12 -9 -8 -20 -7 -38 1 -15 7 -37 8 -54 4 -15 -4 -37 -9 -48 -10
-11 -1 -24 -4 -30 -6 -5 -2 -31 7 -57 20 -42 22 -51 23 -75 12 -19 -9 -83 -14
-192 -15 -146 -1 -165 1 -175 16 -15 25 -24 22 -19 -7 6 -26 33 -57 33 -36 0
6 5 11 10 11 6 0 10 -13 10 -30 0 -32 -9 -37 -28 -18 -9 9 -12 9 -12 0 0 -7
-4 -12 -10 -12 -5 0 -10 12 -10 26 0 14 -4 23 -10 19 -5 -3 -10 -15 -10 -26 0
-14 -7 -19 -26 -19 -22 0 -25 4 -22 27 2 17 10 29 23 33 12 3 20 14 21 28 1
24 -15 29 -34 10z m504 -23 c4 -8 14 -15 23 -15 13 0 18 -8 18 -30 0 -25 -4
-30 -24 -30 -14 0 -23 6 -23 15 0 8 -7 15 -15 15 -9 0 -12 -6 -9 -15 7 -18
-12 -20 -20 -2 -5 10 -7 10 -12 0 -10 -23 -24 -13 -24 17 0 25 4 30 24 30 14
0 28 -5 31 -10 8 -13 25 -3 25 15 0 9 -6 12 -15 9 -8 -4 -15 -1 -15 5 0 16 30
13 36 -4z m-316 -25 c0 -5 -9 -10 -20 -10 -11 0 -20 -4 -20 -10 0 -5 9 -10 20
-10 11 0 20 -4 20 -10 0 -15 -36 -12 -50 5 -10 12 -10 18 0 30 14 17 50 20 50
5z m74 -5 c8 -22 -4 -45 -24 -45 -10 0 -23 7 -30 15 -15 18 2 45 30 45 10 0
20 -7 24 -15z m44 3 c9 -9 12 -9 12 0 0 7 5 12 10 12 6 0 10 -13 10 -30 0 -32
-9 -37 -28 -18 -9 9 -12 9 -12 0 0 -7 -4 -12 -10 -12 -5 0 -10 14 -10 30 0 32
9 37 28 18z m102 2 c0 -5 -4 -10 -10 -10 -5 0 -10 -9 -10 -20 0 -11 -4 -20
-10 -20 -5 0 -10 8 -10 18 0 10 -5 23 -12 30 -9 9 -5 12 20 12 18 0 32 -4 32
-10z m210 -10 c0 -11 7 -20 15 -20 8 0 15 -4 15 -10 0 -5 -11 -10 -25 -10 -21
0 -25 5 -25 30 0 17 5 30 10 30 6 0 10 -9 10 -20z m90 -10 c0 -25 -4 -30 -25
-30 -21 0 -25 5 -25 30 0 25 4 30 25 30 21 0 25 -5 25 -30z m96 14 c-3 -9 -6
-22 -6 -30 0 -8 -4 -14 -10 -14 -5 0 -10 9 -10 20 0 11 -4 20 -10 20 -5 0 -10
5 -10 10 0 6 12 10 26 10 20 0 25 -4 20 -16z m71 -14 c0 -25 -4 -30 -24 -30
-19 0 -23 5 -23 30 0 25 4 30 23 30 20 0 24 -5 24 -30z m47 18 c5 -10 7 -10
12 0 10 22 24 13 24 -17 0 -25 -3 -28 -30 -27 -26 1 -30 5 -30 29 0 28 14 37
24 15z m106 -1 c0 -12 -34 -47 -45 -47 -3 0 -5 14 -5 30 0 25 4 30 25 30 14 0
25 -6 25 -13z m68 -17 c1 -25 -3 -30 -24 -30 -13 0 -24 5 -24 10 0 6 6 10 13
10 9 0 8 3 -2 9 -17 11 -6 31 18 31 13 0 18 -8 19 -30z"/>
<path d="M1155 290 c-3 -5 -2 -10 3 -10 5 0 9 -13 9 -30 0 -20 -5 -30 -16 -31
-10 0 -7 -4 7 -10 13 -5 28 -6 33 -3 5 3 17 -3 27 -12 16 -16 17 -16 20 -1 3
13 15 17 53 17 l49 0 0 35 c0 24 -5 35 -15 35 -17 0 -19 -14 -6 -39 8 -15 5
-17 -25 -17 -35 0 -35 -1 -17 42 4 12 -64 30 -75 20 -3 -3 4 -6 16 -6 18 0 22
-6 22 -30 0 -25 -4 -30 -25 -30 -14 0 -26 6 -26 13 -1 6 -3 19 -4 27 -1 8 -3
21 -4 28 -1 14 -17 16 -26 2z"/>
<path d="M1362 273 c8 -10 14 -11 16 -4 7 22 22 10 22 -19 0 -31 -9 -37 -27
-19 -7 7 -12 6 -16 -4 -4 -12 11 -16 81 -20 48 -2 91 -1 97 4 5 5 -2 9 -18 9
-23 0 -27 4 -27 29 0 20 6 31 18 34 9 3 -22 5 -71 4 -76 0 -86 -2 -75 -14z
m108 -3 c0 -5 -7 -10 -15 -10 -8 0 -15 -4 -15 -10 0 -5 7 -10 15 -10 8 0 15
-4 15 -10 0 -5 -9 -10 -20 -10 -23 0 -35 22 -26 45 6 17 46 21 46 5z"/>
<path d="M1532 265 c-1 -13 3 -27 8 -30 6 -3 10 0 10 9 0 8 3 21 6 30 4 10 1
16 -8 16 -7 0 -15 -11 -16 -25z"/>
<path d="M1610 230 c0 -7 -6 -10 -14 -7 -8 3 -17 -1 -20 -8 -6 -18 10 -29 20
-14 5 8 8 8 14 -1 5 -8 9 -5 13 9 3 12 1 24 -4 27 -5 3 -9 0 -9 -6z"/>
<path d="M1467 103 c-4 -3 -7 -18 -7 -32 0 -28 14 -19 25 17 6 21 -4 30 -18
15z"/>
</g>
</svg>
